<svg width="793" height="275" viewBox="0 0 793 275" fill="none" xmlns="http://www.w3.org/2000/svg">
<path d="M10 48.3982L74.8322 19L137 48.3982M10 48.3982L74.8322 83.1416M10 48.3982V123.676L74.8322 170M74.8322 83.1416L137 48.3982M74.8322 83.1416V170M137 48.3982V117.885L74.8322 170" stroke="#F23B32" stroke-width="20"/>
<path d="M44.9261 262.5H38.1761L50.4659 227.591H58.2727L70.5795 262.5H63.8295L54.5057 234.75H54.233L44.9261 262.5ZM45.1477 248.812H63.5568V253.892H45.1477V248.812ZM152.541 227.591V262.5H146.218V227.591H152.541ZM230.429 262.5V227.591H243.52C246.202 227.591 248.452 228.057 250.27 228.989C252.1 229.92 253.481 231.227 254.412 232.909C255.356 234.58 255.827 236.528 255.827 238.756C255.827 240.994 255.35 242.937 254.395 244.585C253.452 246.222 252.06 247.489 250.219 248.386C248.378 249.273 246.117 249.716 243.435 249.716H234.111V244.466H242.583C244.151 244.466 245.435 244.25 246.435 243.818C247.435 243.375 248.174 242.733 248.651 241.892C249.14 241.04 249.384 239.994 249.384 238.756C249.384 237.517 249.14 236.46 248.651 235.585C248.162 234.699 247.418 234.028 246.418 233.574C245.418 233.108 244.128 232.875 242.549 232.875H236.753V262.5H230.429ZM248.464 246.682L257.106 262.5H250.049L241.56 246.682H248.464ZM332.688 262.5V227.591H339.012V257.199H354.387V262.5H332.688ZM437.24 227.591V262.5H430.916V227.591H437.24ZM543.815 227.591V262.5H538.19L521.741 238.722H521.451V262.5H515.128V227.591H520.787L537.218 251.386H537.525V227.591H543.815ZM621.746 262.5V227.591H644.45V232.892H628.07V242.369H643.274V247.67H628.07V257.199H644.587V262.5H621.746ZM740.914 237.188C740.754 235.699 740.084 234.54 738.902 233.71C737.732 232.881 736.209 232.466 734.334 232.466C733.016 232.466 731.885 232.665 730.942 233.062C729.999 233.46 729.277 234 728.777 234.682C728.277 235.364 728.022 236.142 728.01 237.017C728.01 237.744 728.175 238.375 728.504 238.909C728.845 239.443 729.306 239.898 729.885 240.273C730.465 240.636 731.107 240.943 731.811 241.193C732.516 241.443 733.226 241.653 733.942 241.824L737.215 242.642C738.533 242.949 739.8 243.364 741.016 243.886C742.243 244.409 743.34 245.068 744.306 245.864C745.283 246.659 746.056 247.619 746.624 248.744C747.192 249.869 747.476 251.187 747.476 252.699C747.476 254.744 746.953 256.545 745.908 258.102C744.862 259.648 743.351 260.858 741.374 261.733C739.408 262.597 737.027 263.028 734.232 263.028C731.516 263.028 729.158 262.608 727.158 261.767C725.169 260.926 723.612 259.699 722.487 258.085C721.374 256.472 720.772 254.506 720.681 252.188H726.902C726.993 253.403 727.368 254.415 728.027 255.222C728.686 256.028 729.544 256.631 730.601 257.028C731.669 257.426 732.862 257.625 734.181 257.625C735.556 257.625 736.76 257.42 737.794 257.011C738.84 256.591 739.658 256.011 740.249 255.273C740.84 254.523 741.141 253.648 741.152 252.648C741.141 251.739 740.874 250.989 740.351 250.398C739.828 249.795 739.095 249.295 738.152 248.898C737.22 248.489 736.129 248.125 734.879 247.807L730.908 246.784C728.033 246.045 725.76 244.926 724.09 243.426C722.431 241.915 721.601 239.909 721.601 237.409C721.601 235.352 722.158 233.551 723.272 232.006C724.397 230.46 725.925 229.261 727.857 228.409C729.789 227.545 731.976 227.114 734.419 227.114C736.897 227.114 739.067 227.545 740.931 228.409C742.806 229.261 744.277 230.449 745.345 231.972C746.414 233.483 746.965 235.222 746.999 237.188H740.914Z" fill="black"/>
<path d="M205 0V165.193H334L393 59.4344L453 165.193H508.5V59.4344C535.833 53.7532 590.7 50.0823 591.5 80.8483C592.3 111.614 566.833 118.141 554 117.558L604 165.193H664L718 59.4344L784 170" stroke="#F23B32" stroke-width="20"/>
<path d="M380.5 123H409M707 123L732.5 123" stroke="#F23B32" stroke-width="20"/>
</svg>
